<svg width="65" height="36" viewBox="0 0 65 36" fill="none" xmlns="http://www.w3.org/2000/svg">
<path d="M18.0272 0H24.5453L14.4719 14.4807H26.3229L0 35.0972H0.250695L14.4719 18.6531H5.48394L18.0272 0Z" fill="#03A87C"/>
<path d="M30.55 24L33.1 11.1H29L29.65 7.75H41.85L41.2 11.1H37.1L34.55 24H30.55ZM39.149 18.9C39.149 17.75 39.3574 16.7083 39.774 15.775C40.1907 14.825 40.7324 14.0167 41.399 13.35C42.0824 12.6667 42.8407 12.1417 43.674 11.775C44.524 11.3917 45.3657 11.2 46.199 11.2C46.9657 11.2 47.6074 11.325 48.124 11.575C48.6574 11.825 49.0824 12.1667 49.399 12.6C49.7324 13.0333 49.974 13.5417 50.124 14.125C50.274 14.6917 50.349 15.3 50.349 15.95C50.349 16.2667 50.3157 16.5833 50.249 16.9C50.199 17.2167 50.1324 17.5167 50.049 17.8C49.9824 18.0667 49.9074 18.3083 49.824 18.525C49.7574 18.725 49.699 18.8667 49.649 18.95H42.899C42.9324 19.7833 43.1907 20.3833 43.674 20.75C44.1574 21.1167 44.7657 21.3 45.499 21.3C45.849 21.3 46.2157 21.2167 46.599 21.05C46.9824 20.8833 47.3157 20.7 47.599 20.5L48.999 23C48.499 23.35 47.8574 23.6583 47.074 23.925C46.2907 24.175 45.3824 24.3 44.349 24.3C43.5824 24.3 42.8824 24.175 42.249 23.925C41.6157 23.675 41.0657 23.3167 40.599 22.85C40.149 22.3833 39.7907 21.8167 39.524 21.15C39.274 20.4833 39.149 19.7333 39.149 18.9ZM43.199 16.55H46.999C47.0324 16.45 47.0574 16.3333 47.074 16.2C47.0907 16.05 47.099 15.9 47.099 15.75C47.099 15.3167 46.999 14.9583 46.799 14.675C46.599 14.3917 46.2324 14.25 45.699 14.25C45.2157 14.25 44.749 14.4333 44.299 14.8C43.849 15.1667 43.4824 15.75 43.199 16.55ZM55.2479 24.3C54.1479 24.3 53.2895 23.9083 52.6729 23.125C52.0562 22.325 51.7479 21.1833 51.7479 19.7C51.7479 18.5167 51.9312 17.4083 52.2979 16.375C52.6645 15.3417 53.1562 14.4417 53.7729 13.675C54.3895 12.9083 55.0979 12.3083 55.8979 11.875C56.6979 11.425 57.5312 11.2 58.3979 11.2C58.9312 11.2 59.4395 11.3417 59.9229 11.625C60.4062 11.8917 60.7645 12.2667 60.9979 12.75H61.0479L61.5979 11.5H64.7979L62.2979 24H59.0479V22.45H58.9979C58.4479 23.0333 57.8312 23.4917 57.1479 23.825C56.4812 24.1417 55.8479 24.3 55.2479 24.3ZM57.0479 21.05C57.3812 21.05 57.7479 20.95 58.1479 20.75C58.5479 20.5333 58.9145 20.0833 59.2479 19.4L60.0479 15.4C59.8979 15.0667 59.6895 14.825 59.4229 14.675C59.1729 14.525 58.9312 14.45 58.6979 14.45C58.3312 14.45 57.9812 14.5667 57.6479 14.8C57.3145 15.0333 57.0145 15.3583 56.7479 15.775C56.4979 16.1917 56.2895 16.6917 56.1229 17.275C55.9729 17.8583 55.8979 18.5 55.8979 19.2C55.8979 19.85 55.9979 20.325 56.1979 20.625C56.4145 20.9083 56.6979 21.05 57.0479 21.05Z" fill="#03A87C"/>
</svg>
